# xmcd CD database file
# Copyright (C) 1993-1998 Ti Kan
#
# Track frame offsets:
#    150
#    20392
#    30490
#    44767
#    58100
#    75512
#    89085
#    108052
#    122387
#    135602
#    148445
#    166875
#    179295
#    191810
#    207117
#    222540
#
# Disc length: 3163 seconds
#
# Revision: 2
# Processed by: cddbd v1.4b41PL1 Copyright (c) Steve Scherf et al.
# Submitted via: MyCDplayer 2.4.5  (wjohn@am-woljo.com)
#
DISCID=e70c5910
DTITLE=Ray Stevens - 
DTITLE=Country Hits Collection
DYEAR=1900
DGENRE=
TTITLE0=Sunday Mornin' Comin' Down
TTITLE1=Turn Your Radio On
TTITLE2=Nashville
TTITLE3=Misty
TTITLE4=Young Love
TTITLE5=She Belongs to Me
TTITLE6=Losin' Streak
TTITLE7=Just One of Life's Little Tragedies
TTITLE8=Easy Loving
TTITLE9=Sunshine
TTITLE10=Take Care of Business
TTITLE11=Undivided Attention
TTITLE12=Destroyed
TTITLE13=Loving You On Paper
TTITLE14=Piece of Paradise
TTITLE15=Deep Purple
EXTD=
EXTT0=
EXTT1=
EXTT2=
EXTT3=
EXTT4=
EXTT5=
EXTT6=
EXTT7=
EXTT8=
EXTT9=
EXTT10=
EXTT11=
EXTT12=
EXTT13=
EXTT14=
EXTT15=
PLAYORDER=
